<svg version="1.0" xmlns="http://www.w3.org/2000/svg"
 width="175.000000pt" height="66.000000pt" viewBox="0 0 175.000000 66.000000"
 preserveAspectRatio="xMidYMid meet">

<g transform="translate(0.000000,66.000000) scale(0.100000,-0.100000)"
fill="#F5FFFA" stroke="none">
<path d="M633 638 c-6 -7 -25 -56 -42 -109 l-32 -97 -65 -16 c-36 -9 -69 -14
-74 -11 -4 3 -14 46 -21 95 -7 50 -16 96 -21 103 -11 18 -35 0 -86 -64 -24
-30 -80 -99 -125 -154 -101 -123 -167 -220 -167 -246 0 -41 36 -17 94 62 32
44 69 87 80 95 24 15 174 39 184 29 3 -3 0 -46 -7 -96 -9 -67 -10 -94 -2 -102
23 -23 43 19 56 117 6 52 17 101 23 109 16 19 112 70 119 63 3 -3 -6 -47 -20
-98 -23 -83 -31 -133 -28 -177 2 -21 85 -5 167 33 78 37 129 78 186 149 31 39
38 57 38 92 0 58 -52 116 -135 150 -33 14 -59 30 -57 36 1 6 0 20 -3 30 -7 22
-47 26 -62 7z m172 -170 c14 -16 25 -42 25 -57 0 -62 -115 -172 -217 -207 -29
-10 -55 -15 -59 -12 -6 7 63 249 91 314 l14 33 60 -20 c38 -13 70 -32 86 -51z
m-448 -18 c12 -60 8 -64 -75 -74 -43 -6 -52 -4 -46 6 14 24 98 118 105 118 3
0 11 -23 16 -50z"/>
<path d="M1310 617 c0 -12 39 -81 86 -152 47 -72 88 -136 91 -143 3 -8 -18
-63 -48 -124 -53 -111 -65 -166 -41 -190 9 -9 17 1 34 43 31 76 145 295 181
348 17 25 52 69 79 98 49 54 60 89 32 100 -21 8 -63 -34 -136 -134 -32 -46
-62 -83 -66 -83 -4 0 -32 49 -63 108 -39 76 -65 114 -89 130 -42 28 -60 28
-60 -1z"/>
<path d="M1159 554 l-59 -57 -49 47 c-37 33 -58 46 -80 46 -16 0 -32 -4 -35
-9 -4 -5 21 -36 54 -69 33 -33 60 -65 60 -70 0 -5 -43 -65 -96 -133 -103 -133
-124 -166 -124 -199 0 -33 15 -23 67 42 66 84 170 200 187 210 10 6 23 -7 46
-48 74 -132 121 -135 65 -3 -19 46 -35 96 -35 112 0 36 54 104 97 122 53 22
41 65 -19 65 -11 0 -46 -25 -79 -56z"/>
</g>
</svg>
