<?xml version="1.0" standalone="no"?>
<!DOCTYPE svg PUBLIC "-//W3C//DTD SVG 20010904//EN"
 "http://www.w3.org/TR/2001/REC-SVG-20010904/DTD/svg10.dtd">
<svg version="1.0" xmlns="http://www.w3.org/2000/svg"
 width="2714.000000pt" height="756.000000pt" viewBox="0 0 2714.000000 756.000000"
 preserveAspectRatio="xMidYMid meet">

<g transform="translate(0.000000,756.000000) scale(0.100000,-0.100000)"
fill="#F5FFFA" stroke="none">
<path d="M15242 7550 l-162 -5 1090 -1870 c609 -1044 1088 -1876 1085 -1884
-3 -8 -496 -860 -1096 -1894 -599 -1034 -1087 -1882 -1084 -1886 4 -3 1136 -7
2517 -9 2417 -3 2510 -2 2506 15 -3 10 -486 853 -1073 1873 -587 1019 -1070
1861 -1072 1870 -6 22 391 720 1329 2340 657 1134 838 1448 838 1454 0 8
-4660 4 -4878 -4z m3906 -572 c-104 -162 -1074 -1833 -1506 -2595 -13 -24 -27
-43 -30 -43 -4 0 -153 253 -331 563 -721 1249 -949 1640 -1057 1814 -62 100
-125 205 -139 233 l-25 50 1551 0 1551 0 -14 -22z m-1390 -4030 c213 -356 333
-562 772 -1328 319 -557 569 -988 608 -1047 l14 -23 -1557 0 -1557 0 14 23
c28 42 965 1662 1249 2159 156 274 285 498 286 498 1 0 78 -127 171 -282z"/>
<path d="M4347 7529 c-9 -13 -426 -735 -928 -1604 -747 -1295 -2084 -3608
-3218 -5568 -110 -192 -201 -350 -201 -353 0 -6 8716 -5 8722 1 3 3 -295 524
-662 1158 -838 1447 -1726 2984 -2825 4887 -471 817 -861 1489 -865 1494 -4 4
-15 -2 -23 -15z m603 -2089 c744 -1292 1587 -2751 2267 -3923 299 -517 547
-945 550 -953 4 -12 -483 -14 -3402 -14 -3206 0 -3407 1 -3401 17 4 9 158 278
343 598 649 1119 1742 3010 2356 4075 341 591 638 1106 659 1143 22 38 43 65
47 60 5 -4 266 -456 581 -1003z"/>
<path d="M9600 3781 c0 -2074 3 -3771 8 -3771 4 0 22 9 41 21 105 64 757 442
1281 744 333 191 747 430 920 530 173 100 608 351 965 557 358 207 983 568
1390 803 407 235 988 569 1290 742 303 173 569 326 593 340 l44 25 -399 230
c-219 127 -1233 712 -2253 1300 -1020 589 -1965 1135 -2100 1213 -135 78 -474
274 -755 435 -426 244 -910 528 -1002 588 l-23 14 0 -3771z m980 2554 c895
-519 2083 -1204 3235 -1867 649 -374 1183 -683 1187 -686 9 -9 -442 -272
-2512 -1465 -668 -385 -1411 -813 -1650 -952 -452 -262 -704 -405 -714 -405
-3 0 -6 1269 -6 2821 0 1551 3 2818 8 2816 4 -3 207 -121 452 -262z"/>
<path d="M21153 7533 c-95 -2 -173 -6 -173 -9 0 -3 16 -29 35 -59 19 -30 101
-170 183 -312 540 -935 624 -1077 1267 -2163 611 -1032 852 -1443 1085 -1848
150 -262 172 -305 163 -325 -6 -12 -360 -646 -787 -1410 -427 -763 -776 -1392
-776 -1397 0 -6 107 -10 298 -10 272 0 300 2 314 18 15 17 4354 7470 4364
7495 4 11 -49 15 -318 20 -306 7 -5289 6 -5655 0z m4954 -635 c-13 -24 -480
-833 -1037 -1798 -557 -965 -1014 -1756 -1015 -1758 -1 -1 -91 154 -200 345
-281 493 -1782 3096 -1857 3221 l-20 32 2077 0 2077 0 -25 -42z"/>
<path d="M24900 1658 c-266 -38 -498 -211 -620 -463 -77 -160 -102 -300 -81
-460 46 -345 301 -629 639 -712 94 -23 285 -23 377 1 168 43 351 159 458 291
139 171 205 397 178 608 -26 202 -103 361 -240 498 -101 100 -191 156 -316
198 -143 47 -259 59 -395 39z m257 -518 c73 -34 141 -100 175 -167 19 -40 23
-63 23 -143 -1 -83 -4 -102 -27 -146 -58 -112 -174 -178 -313 -178 -97 -1
-151 21 -224 89 -70 66 -96 128 -96 235 0 76 4 93 32 150 61 125 163 189 298
190 57 0 82 -5 132 -30z"/>
</g>
</svg>
